<svg width="1066" height="430" viewBox="0 0 1066 430" fill="none" xmlns="http://www.w3.org/2000/svg">
<path id="p01" d="M1040.32 410L1050.32 420L1040.32 430L865.315 430L855.315 420L865.315 410L1040.32 410Z" fill="white" fill-opacity="0.1"/>
<path id="p02" d="M1045.32 230L1055.32 220L1065.32 230V405L1055.32 415L1045.32 405V230Z" fill="white" fill-opacity="0.1"/>
<path id="p03" d="M840.315 230L850.315 220L860.315 230V405L850.315 415L840.315 405V230Z" fill="white" fill-opacity="0.1"/>
<path id="p04" d="M1040.32 205L1050.32 215L1040.32 225L865.315 225L855.315 215L865.315 205L1040.32 205Z" fill="white" fill-opacity="0.1"/>
<path id="p05" d="M1045.32 25L1055.32 15L1065.32 25V200L1055.32 210L1045.32 200V25Z" fill="white" fill-opacity="0.1"/>
<path id="p06" d="M840.315 25L850.315 15L860.315 25V200L850.315 210L840.315 200V25Z" fill="white" fill-opacity="0.1"/>
<path id="p07" d="M1040.32 -4.37114e-07L1050.32 10L1040.32 20L865.315 20L855.315 9.99999L865.315 -8.08661e-06L1040.32 -4.37114e-07Z" fill="white" fill-opacity="0.1"/>
<path id="p11" d="M760.315 410L770.315 420L760.315 430L585.315 430L575.315 420L585.315 410L760.315 410Z" fill="white" fill-opacity="0.1"/>
<path id="p12" d="M765.315 230L775.315 220L785.315 230V405L775.315 415L765.315 405V230Z" fill="white" fill-opacity="0.1"/>
<path id="p13" d="M560.315 230L570.315 220L580.315 230V405L570.315 415L560.315 405V230Z" fill="white" fill-opacity="0.1"/>
<path id="p14" d="M760.315 205L770.315 215L760.315 225L585.315 225L575.315 215L585.315 205L760.315 205Z" fill="white" fill-opacity="0.1"/>
<path id="p15" d="M765.315 25L775.315 15L785.315 25V200L775.315 210L765.315 200V25Z" fill="white" fill-opacity="0.1"/>
<path id="p16" d="M560.315 25L570.315 15L580.315 25V200L570.315 210L560.315 200V25Z" fill="white" fill-opacity="0.1"/>
<path id="p17" d="M760.315 -4.37114e-07L770.315 10L760.315 20L585.315 20L575.315 9.99999L585.315 -8.08661e-06L760.315 -4.37114e-07Z" fill="white" fill-opacity="0.1"/>
<path id="p21" d="M480.315 410L490.315 420L480.315 430L305.315 430L295.315 420L305.315 410L480.315 410Z" fill="white" fill-opacity="0.1"/>
<path id="p22" d="M485.315 230L495.315 220L505.315 230V405L495.315 415L485.315 405V230Z" fill="white" fill-opacity="0.1"/>
<path id="p23" d="M280.315 230L290.315 220L300.315 230V405L290.315 415L280.315 405V230Z" fill="white" fill-opacity="0.1"/>
<path id="p24" d="M480.315 205L490.315 215L480.315 225L305.315 225L295.315 215L305.315 205L480.315 205Z" fill="white" fill-opacity="0.1"/>
<path id="p25" d="M485.315 25L495.315 15L505.315 25V200L495.315 210L485.315 200V25Z" fill="white" fill-opacity="0.1"/>
<path id="p26" d="M280.315 25L290.315 15L300.315 25V200L290.315 210L280.315 200V25Z" fill="white" fill-opacity="0.1"/>
<path id="p27" d="M480.315 -4.37114e-07L490.315 10L480.315 20L305.315 20L295.315 9.99999L305.315 -8.08661e-06L480.315 -4.37114e-07Z" fill="white" fill-opacity="0.1"/>
<path id="p31" d="M200.315 410L210.315 420L200.315 430L25.3154 430L15.3154 420L25.3154 410L200.315 410Z" fill="white" fill-opacity="0.1"/>
<path id="p32" d="M205.315 230L215.315 220L225.315 230V405L215.315 415L205.315 405V230Z" fill="white" fill-opacity="0.1"/>
<path id="p33" d="M0.31543 230L10.3154 220L20.3154 230V405L10.3154 415L0.31543 405V230Z" fill="white" fill-opacity="0.1"/>
<path id="p34" d="M200.315 205L210.315 215L200.315 225L25.3154 225L15.3154 215L25.3154 205L200.315 205Z" fill="white" fill-opacity="0.1"/>
<path id="p35" d="M205.315 25L215.315 15L225.315 25V200L215.315 210L205.315 200V25Z" fill="white" fill-opacity="0.1"/>
<path id="p36" d="M0.31543 25L10.3154 15L20.3154 25V200L10.3154 210L0.31543 200V25Z" fill="white" fill-opacity="0.1"/>
<path id="p37" d="M200.315 -4.37114e-07L210.315 10L200.315 20L25.3154 20L15.3154 9.99999L25.3154 -8.08661e-06L200.315 -4.37114e-07Z" fill="white" fill-opacity="0.1"/>
</svg>
